Ryan (Greg Cipes) is a lion who wants to go to the wild, where his dad (Samson, voiced by Keifer Sutherland) once lived. When he gets himself shipped to Africa, his zoo friends (and Samson) work together to bring him back. When they get to Africa, however, the animals find themselves in a pile of danger. They have to fight an evil wildebeest called Kazar (William Shatner). But Kazar's safe compared to the other danger on the island- a volcano that's on the edge of eruption. Can the animals find Ryan and get out of Africa before the volcano erupts in so little time?

Format : MPEG-4
Format profile : Base Media / Version 2
Codec ID : mp42
File size : 698 MiB
Duration : 1h 18mn
Overall bit rate : 1 248 Kbps
Encoded date : UTC 2009-08-07 01:35:18
Tagged date : UTC 2009-08-07 05:15:23
Writing application : HandBrake 0.9.3 2008112300

Video
ID : 1
Format : AVC
Format/Info : Advanced Video Codec
Format profile : Main@L4.0
Format settings, CABAC : Yes
Format settings, ReFrames : 3 frames
Codec ID : avc1
Codec ID/Info : Advanced Video Coding
Duration : 1h 18mn
Bit rate mode : Variable
Bit rate : 1 084 Kbps
Width : 720 pixels
Height : 574 pixels
Display aspect ratio : 16/9
Frame rate mode : Variable
Frame rate : 25.000 fps
Minimum frame rate : 12.500 fps
Maximum frame rate : 38.278 fps
Resolution : 24 bits
Colorimetry : 4:2:0
Scan type : Progressive
Bits/(Pixel*Frame) : 0.105
Stream size : 607 MiB (87%)

Audio
ID : 2
Format : AAC
Format/Info : Advanced Audio Codec
Format version : Version 4
Format profile : LC
Format settings, SBR : No
Codec ID : 40
Duration : 1h 18mn
Bit rate mode : Variable
Bit rate : 160 Kbps
Maximum bit rate : 212 Kbps
Channel(s) : 2 channels
Channel positions : L R
Sampling rate : 48.0 KHz
Resolution : 16 bits
Stream size : 89.5 MiB (13%)
Language : English
Encoded date : UTC 2009-08-07 01:35:19
Tagged date : UTC 2009-08-07 05:15:20